<mxfile host="" modified="2020-06-14T11:36:15.250Z" agent="5.0 (Windows NT 10.0; Win64; x64) AppleWebKit/537.36 (KHTML, like Gecko) Code/1.46.0 Chrome/78.0.3904.130 Electron/7.3.1 Safari/537.36" etag="v1LkaJjyMfIAKbfCctHe" version="13.1.3">
    <diagram id="6hGFLwfOUW9BJ-s0fimq" name="Page-1">
        <mxGraphModel dx="1006" dy="830" grid="1" gridSize="10" guides="1" tooltips="1" connect="1" arrows="1" fold="1" page="1" pageScale="1" pageWidth="827" pageHeight="1169" math="0" shadow="0">
            <root>
                <mxCell id="0"/>
                <mxCell id="1" parent="0"/>
                <mxCell id="6" value="" style="edgeStyle=orthogonalEdgeStyle;rounded=0;orthogonalLoop=1;jettySize=auto;html=1;" parent="1" source="2" target="5" edge="1">
                    <mxGeometry relative="1" as="geometry"/>
                </mxCell>
                <mxCell id="10" value="" style="edgeStyle=orthogonalEdgeStyle;rounded=0;orthogonalLoop=1;jettySize=auto;html=1;" parent="1" source="2" target="9" edge="1">
                    <mxGeometry relative="1" as="geometry"/>
                </mxCell>
                <mxCell id="2" value="&lt;pre style=&quot;background-color: #2b2b2b ; color: #a9b7c6 ; font-family: &amp;#34;source code pro semibold&amp;#34; ; font-size: 10.5pt&quot;&gt;Module&lt;/pre&gt;" style="text;html=1;align=center;verticalAlign=middle;resizable=0;points=[];autosize=1;rounded=1;strokeColor=#7EA6E0;glass=0;" parent="1" vertex="1">
                    <mxGeometry x="365" y="300" width="70" height="50" as="geometry"/>
                </mxCell>
                <mxCell id="16" value="" style="edgeStyle=orthogonalEdgeStyle;rounded=0;orthogonalLoop=1;jettySize=auto;html=1;" parent="1" source="14" target="2" edge="1">
                    <mxGeometry relative="1" as="geometry"/>
                </mxCell>
                <mxCell id="14" value="&lt;pre style=&quot;background-color: #2b2b2b ; color: #a9b7c6 ; font-family: &amp;#34;source code pro semibold&amp;#34; ; font-size: 10.5pt&quot;&gt;Vue&lt;/pre&gt;" style="text;html=1;align=center;verticalAlign=middle;resizable=0;points=[];autosize=1;" parent="1" vertex="1">
                    <mxGeometry x="380" y="430" width="40" height="50" as="geometry"/>
                </mxCell>
                <mxCell id="9" value="&lt;pre style=&quot;background-color: #2b2b2b ; color: #a9b7c6 ; font-family: &amp;#34;source code pro semibold&amp;#34; ; font-size: 10.5pt&quot;&gt;${ModuleName}&lt;/pre&gt;" style="text;html=1;align=center;verticalAlign=middle;resizable=0;points=[];autosize=1;rounded=1;glass=0;strokeColor=#7EA6E0;" parent="1" vertex="1">
                    <mxGeometry x="340" y="130" width="120" height="50" as="geometry"/>
                </mxCell>
                <mxCell id="8" value="" style="edgeStyle=orthogonalEdgeStyle;rounded=0;orthogonalLoop=1;jettySize=auto;html=1;" parent="1" source="5" target="7" edge="1">
                    <mxGeometry relative="1" as="geometry"/>
                </mxCell>
                <mxCell id="5" value="&lt;pre style=&quot;background-color: #2b2b2b ; color: #a9b7c6 ; font-family: &amp;#34;source code pro semibold&amp;#34; ; font-size: 10.5pt&quot;&gt;ModuleE&lt;/pre&gt;" style="text;html=1;align=center;verticalAlign=middle;resizable=0;points=[];autosize=1;rounded=1;strokeColor=#7EA6E0;glass=0;" parent="1" vertex="1">
                    <mxGeometry x="525" y="300" width="70" height="50" as="geometry"/>
                </mxCell>
                <mxCell id="7" value="&lt;pre style=&quot;background-color: #2b2b2b ; color: #a9b7c6 ; font-family: &amp;#34;source code pro semibold&amp;#34; ; font-size: 10.5pt&quot;&gt;${ModuleName}E&lt;/pre&gt;" style="text;html=1;align=center;verticalAlign=middle;resizable=0;points=[];autosize=1;rounded=1;strokeColor=#7EA6E0;glass=0;" parent="1" vertex="1">
                    <mxGeometry x="495" y="130" width="130" height="50" as="geometry"/>
                </mxCell>
                <mxCell id="19" value="molle/editer/module/${ModuleName}E.vue" style="text;whiteSpace=wrap;html=1;" vertex="1" parent="1">
                    <mxGeometry x="40" y="140" width="250" height="30" as="geometry"/>
                </mxCell>
                <mxCell id="20" value="molle/ssr/module/${ModuleName}.vue" style="text;whiteSpace=wrap;html=1;" vertex="1" parent="1">
                    <mxGeometry x="40" y="220" width="200" height="30" as="geometry"/>
                </mxCell>
                <mxCell id="21" value="molle/editer/module/index.vue" style="text;whiteSpace=wrap;html=1;" vertex="1" parent="1">
                    <mxGeometry x="40" y="170" width="250" height="30" as="geometry"/>
                </mxCell>
                <mxCell id="22" value="molle/ssr/module/index.vue" style="text;whiteSpace=wrap;html=1;" vertex="1" parent="1">
                    <mxGeometry x="40" y="260" width="200" height="30" as="geometry"/>
                </mxCell>
                <mxCell id="23" value="store/content.ts" style="text;whiteSpace=wrap;html=1;" vertex="1" parent="1">
                    <mxGeometry x="40" y="330" width="110" height="30" as="geometry"/>
                </mxCell>
                <mxCell id="24" value="Box - component :&amp;nbsp;&lt;span style=&quot;font-family: &amp;#34;source code pro semibold&amp;#34; ; font-size: 10.5pt&quot;&gt;itemData&lt;/span&gt;&lt;span style=&quot;font-family: &amp;#34;source code pro semibold&amp;#34; ; font-size: 10.5pt&quot;&gt;.&lt;/span&gt;&lt;span style=&quot;font-family: &amp;#34;source code pro semibold&amp;#34; ; font-size: 10.5pt&quot;&gt;value&lt;/span&gt;" style="text;html=1;align=center;verticalAlign=middle;resizable=0;points=[];autosize=1;fontColor=#FFFFFF;" vertex="1" parent="1">
                    <mxGeometry x="99" y="550" width="240" height="20" as="geometry"/>
                </mxCell>
                <mxCell id="25" value="Text" style="text;html=1;align=center;verticalAlign=middle;resizable=0;points=[];autosize=1;fontColor=#FFFFFF;" vertex="1" parent="1">
                    <mxGeometry x="610" y="550" width="40" height="20" as="geometry"/>
                </mxCell>
            </root>
        </mxGraphModel>
    </diagram>
</mxfile>
